<svg width="50" height="48" viewBox="0 0 50 48" fill="none" xmlns="http://www.w3.org/2000/svg">
<path d="M16.266 31.0732C7.34272 21.7247 3.35689 11.0462 7.36337 7.22191C11.3698 3.39767 21.8514 7.87591 30.7747 17.2243C39.6979 26.5728 43.6837 37.2513 39.6773 41.0756C35.6708 44.8998 25.1892 40.4216 16.266 31.0732ZM30.0742 17.8929C22.0126 9.44711 12.543 5.40126 8.92337 8.85626C5.30374 12.3113 8.90472 21.9588 16.9664 30.4046C25.0281 38.8504 34.4976 42.8963 38.1173 39.4412C41.7369 35.9862 38.1359 26.3387 30.0742 17.8929Z" fill="white"/>
<path d="M30.7433 30.0533C20.3633 37.7522 9.27383 40.3871 5.97431 35.9385C2.67479 31.4899 8.41466 21.6425 18.7947 13.9436C29.1747 6.24469 40.2641 3.60979 43.5637 8.05837C46.8632 12.5069 41.1233 22.3544 30.7433 30.0533ZM19.3715 14.7213C9.99372 21.6768 4.80806 30.5735 7.789 34.5925C10.7699 38.6116 20.7887 36.2311 30.1665 29.2756C39.5442 22.32 44.7299 13.4234 41.749 9.40433C38.768 5.38528 28.7493 7.76577 19.3715 14.7213Z" fill="white"/>
</svg>
